Coordinates
version=1
nRows=30
nColumns=23
inDegrees=yes

Units are S.I. units (second, meters, Newtons, ...)
If the header above contains a line with 'inDegrees', this indicates whether rotational values are in degrees (yes) or radians (no).

endheader
time	pelvis_tilt	pelvis_list	pelvis_rotation	pelvis_tx	pelvis_ty	pelvis_tz	hip_flexion_r	hip_adduction_r	hip_rotation_r	knee_angle_r	knee_angle_r_beta	ankle_angle_r	subtalar_angle_r	mtp_angle_r	hip_flexion_l	hip_adduction_l	hip_rotation_l	knee_angle_l	knee_angle_l_beta	ankle_angle_l	subtalar_angle_l	mtp_angle_l
      7.50000000	     -4.12758329	     -1.27082999	      5.19542053	      2.21159392	      1.06617409	      1.06317302	     52.33810291	      2.48418917	     -2.16766841	    106.18807552	      1.85333154	      9.61015481	    -21.07869713	      0.00000000	     -9.96646738	     -2.84998230	     -4.06846117	     26.55713839	      0.46350950	     10.66690462	     12.06316412	      0.00000000
      7.50666667	     -4.77911502	     -2.29903729	      4.81939395	      2.21411242	      1.06946692	      1.06287513	     53.91268965	      3.25057468	     -2.81793562	    102.92481248	      1.79637686	     10.54486780	    -21.37284851	      0.00000000	    -11.71226708	     -3.67612600	     -4.11325479	     24.25961754	      0.42341020	      6.58893926	     10.98421118	      0.00000000
      7.51333333	     -5.48040637	     -3.19724090	      4.35783454	      2.21665311	      1.07250498	      1.06273344	     55.36276961	      3.94241220	     -3.38751805	     99.51917562	      1.73693728	     11.45953257	    -21.60606106	      0.00000000	    -13.26507021	     -4.36023679	     -4.34304292	     22.21092105	      0.38765370	      2.49270120	      9.93479675	      0.00000000
      7.52000000	     -6.25868359	     -3.94830789	      3.75262860	      2.21912966	      1.07516748	      1.06285554	     56.73140520	      4.63078217	     -3.81563961	     95.98164154	      1.67519567	     12.37538158	    -21.72943546	      0.00000000	    -14.50361495	     -4.92444030	     -5.03210252	     20.61491289	      0.35979810	     -1.42059249	      9.27171898	      0.00000000
      7.52666667	     -6.92420572	     -4.45367281	      3.17397800	      2.22156735	      1.07781466	      1.06294223	     57.75453448	      5.06430141	     -4.15554936	     92.28988720	      1.61076240	     13.21663782	    -21.76467493	      0.00000000	    -15.74644574	     -5.16792740	     -5.41473112	     19.18610457	      0.33486070	     -5.34741503	      8.03877229	      0.00000000
      7.53333333	     -7.58462066	     -4.77875715	      2.47131850	      2.22387881	      1.08017843	      1.06328133	     58.59157006	      5.48565449	     -4.34092287	     88.45396792	      1.54381298	     14.04216432	    -21.61475250	      0.00000000	    -16.75648551	     -5.21822233	     -6.00216267	     18.21879632	      0.31797798	     -8.93218167	      6.86436656	      0.00000000
      7.54000000	     -8.22766631	     -4.94404674	      1.68030936	      2.22603784	      1.08222798	      1.06383449	     59.21878972	      5.86994058	     -4.42416795	     84.46614368	      1.47421231	     14.78831205	    -21.27203678	      0.00000000	    -17.49403456	     -5.15329785	     -6.95732490	     17.82057566	      0.31102772	    -12.06581223	      5.85334684	      0.00000000
      7.54666667	     -8.56115474	     -4.89348395	      1.02019431	      2.22817472	      1.08442439	      1.06418648	     59.28179850	      5.93033857	     -4.54141626	     80.33099308	      1.40204032	     15.47265408	    -20.68893759	      0.00000000	    -18.47166758	     -4.78655895	     -7.30285862	     17.49978487	      0.30542886	    -15.05284156	      4.23726241	      0.00000000
      7.55333333	     -8.97533667	     -4.82392020	      0.25861388	      2.23010868	      1.08612326	      1.06478124	     59.24422739	      6.08759041	     -4.65144239	     76.00395533	      1.32651927	     15.93906270	    -19.93803677	      0.00000000	    -18.99372159	     -4.50378293	     -8.26560668	     17.94623262	      0.31322085	    -17.23828816	      3.30998947	      0.00000000
      7.56000000	     -9.11505389	     -4.66095896	     -0.42741681	      2.23200994	      1.08778008	      1.06526021	     58.70147771	      6.07667959	     -4.86084622	     71.53439851	      1.24851078	     16.26167293	    -18.91116303	      0.00000000	    -19.65643576	     -4.10666226	     -8.98073015	     18.66712159	      0.32580273	    -18.90527206	      2.16952493	      0.00000000
      7.56666667	     -8.92268047	     -4.48373932	     -1.00988592	      2.23387650	      1.08959828	      1.06557317	     57.59564759	      5.90325049	     -5.30611574	     66.93030927	      1.16815427	     16.66310987	    -17.28499142	      0.00000000	    -20.60118121	     -3.60775241	     -9.20664867	     19.48440089	      0.34006695	    -20.11943167	      0.66302255	      0.00000000
      7.57333333	     -8.82660568	     -4.36235237	     -1.51794562	      2.23563887	      1.09092644	      1.06584285	     56.39023598	      5.70265604	     -5.95452144	     62.16265948	      1.08494308	     16.69656923	    -15.59368925	      0.00000000	    -21.14160631	     -3.27588921	     -9.60140860	     20.92248745	      0.36516629	    -20.55750023	     -0.39724468	      0.00000000
      7.58000000	     -8.59543450	     -4.27898402	     -1.95261517	      2.23740801	      1.09209478	      1.06605434	     54.86455384	      5.45863698	     -6.84524944	     57.33606074	      1.00070304	     16.74387515	    -13.40521092	      0.00000000	    -21.68973966	     -2.98712753	     -9.85077616	     22.63687441	      0.39508799	    -20.43710332	     -1.35035758	      0.00000000
      7.58666667	     -8.29166435	     -4.26846142	     -2.27697945	      2.23918980	      1.09301857	      1.06615032	     53.09734510	      5.19469469	     -8.01467240	     52.49417188	      0.91619614	     16.78269345	    -10.81851069	      0.00000000	    -22.14482510	     -2.82323347	    -10.02579420	     24.69118417	      0.43094246	    -19.87917275	     -2.09047679	      0.00000000
      7.59333333	     -7.99490724	     -4.32514819	     -2.48307819	      2.24098581	      1.09366513	      1.06621735	     51.18327602	      5.00016251	     -9.30722447	     47.63583516	      0.83140217	     16.45371598	     -8.41967396	      0.00000000	    -22.42064965	     -2.77259149	    -10.01036311	     27.06786718	      0.47242340	    -19.04087257	     -2.86029376	      0.00000000
      7.60000000	     -7.48292639	     -4.49124658	     -2.62755575	      2.24289063	      1.09415012	      1.06628740	     48.96431524	      4.92326138	    -10.78049755	     42.97978751	      0.75013880	     16.35420810	     -5.52135210	      0.00000000	    -22.79211200	     -2.90428062	    -10.15508862	     29.72889971	      0.51886718	    -17.98204386	     -3.19493914	      0.00000000
      7.60666667	     -6.95159778	     -4.70390541	     -2.72425668	      2.24483842	      1.09422650	      1.06648882	     46.72106015	      4.96217472	    -12.28699965	     38.65703928	      0.67469261	     16.45254722	     -2.29216314	      0.00000000	    -23.02454026	     -3.18610036	    -10.41403541	     32.70579767	      0.57082385	    -16.82288523	     -3.26111980	      0.00000000
      7.61333333	     -6.42331724	     -4.92683621	     -2.79560016	      2.24664236	      1.09385649	      1.06672851	     44.49836922	      5.18290386	    -13.45667096	     34.64152993	      0.60460876	     15.99729991	      0.16128924	      0.00000000	    -23.07354400	     -3.51548709	    -10.59829752	     35.98536436	      0.62806309	    -15.89644126	     -3.64363922	      0.00000000
      7.62000000	     -6.03461147	     -5.12193106	     -2.91034322	      2.24834570	      1.09283998	      1.06718549	     42.51942082	      5.54170885	    -14.23188608	     31.12259041	      0.54319167	     15.41733957	      2.16341163	      0.00000000	    -22.81062302	     -3.84795383	    -10.75595512	     39.53733797	      0.69005672	    -15.16398148	     -4.26689763	      0.00000000
      7.62666667	     -5.48989192	     -5.37710217	     -3.03049263	      2.24989956	      1.09154064	      1.06760642	     40.50055795	      5.99928381	    -14.75616499	     28.21006898	      0.49235859	     14.81683221	      3.87915864	      0.00000000	    -22.57902492	     -4.27769466	    -11.00140267	     43.30357092	      0.75578989	    -14.56897829	     -4.63105287	      0.00000000
      7.63333333	     -4.84539429	     -5.77984347	     -3.20714358	      2.25130676	      1.08983764	      1.06819826	     38.49280663	      6.62939084	    -15.09878172	     25.88963905	      0.45185944	     13.80730213	      4.80995403	      0.00000000	    -22.34358313	     -4.94470869	    -11.49687770	     47.29106803	      0.82538484	    -14.17290845	     -4.84647340	      0.00000000
      7.64000000	     -4.34205320	     -6.09249429	     -3.43560620	      2.25243562	      1.08748978	      1.06872253	     36.83787058	      7.17863988	    -15.10378883	     24.32093518	      0.42448040	     12.43198594	      4.90080495	      0.00000000	    -21.80829323	     -5.44550152	    -11.75294491	     51.42468445	      0.89753006	    -14.07263974	     -5.68508054	      0.00000000
      7.64666667	     -3.96042170	     -6.38497526	     -3.75880429	      2.25321773	      1.08454259	      1.06924622	     35.49741358	      7.74523296	    -14.69701735	     23.43967765	      0.40909955	     10.50198496	      3.79706302	      0.00000000	    -21.00620556	     -5.88440206	    -11.95439109	     55.70381782	      0.97221503	    -14.16318455	     -6.82404079	      0.00000000
      7.65333333	     -3.59962151	     -6.65857783	     -4.08377708	      2.25378397	      1.08103389	      1.06957649	     34.53543493	      7.98784065	    -14.97272007	     23.73449020	      0.41424500	      8.95268395	      3.42633539	      0.00000000	    -20.06205836	     -6.27969152	    -12.05828489	     60.06735814	      1.04837317	    -14.37822978	     -8.22802182	      0.00000000
      7.66000000	     -3.39272270	     -6.88376738	     -4.58663227	      2.25382191	      1.07697593	      1.07005335	     33.80339087	      8.50071903	    -13.97069627	     24.31288242	      0.42433985	      5.92579612	      0.10515371	      0.00000000	    -18.83819958	     -6.56081884	    -12.20042437	     64.50471638	      1.12581968	    -14.60652773	     -9.80532438	      0.00000000
      7.66666667	     -3.17347855	     -7.20136159	     -5.10267287	      2.25364293	      1.07250289	      1.07041286	     33.32782221	      8.88959195	    -13.49986346	     25.82816103	      0.45078645	      3.46387744	     -2.51715960	      0.00000000	    -17.56185465	     -6.95743881	    -12.37066961	     68.95132263	      1.20342760	    -14.74165049	    -11.39119518	      0.00000000
      7.67333333	     -2.95875839	     -7.58834171	     -5.55308641	      2.25315455	      1.06769642	      1.07052755	     33.08624523	      9.12289968	    -13.51999175	     28.12774750	      0.49092181	      1.79399030	     -4.26040637	      0.00000000	    -16.17863227	     -7.46430271	    -12.46419971	     73.40494369	      1.28115795	    -14.69237083	    -12.95561419	      0.00000000
      7.68000000	     -2.28459633	     -8.17756585	     -6.22313104	      2.25241650	      1.06320986	      1.07079353	     32.43173792	      9.57615826	    -13.46566605	     30.90663567	      0.53942255	      0.77878715	     -5.36673084	      0.00000000	    -15.39672594	     -8.16231655	    -12.97227323	     77.64524663	      1.35516520	    -14.35774082	    -14.36705414	      0.00000000
      7.68666667	     -2.74182011	     -8.38319099	     -6.92677703	      2.25072206	      1.05746018	      1.07118762	     33.04065718	     10.21001830	    -11.80269615	     33.63792290	      0.58709251	     -0.82728642	     -9.67639117	      0.00000000	    -13.00562943	     -8.47183914	    -12.91734712	     82.11823131	      1.43323351	    -13.91145858	    -16.00439246	      0.00000000
      7.69333333	     -2.62672847	     -8.97533288	     -7.61364314	      2.24900292	      1.05245774	      1.07137742	     33.04556368	     10.86497206	    -11.25994287	     36.77710572	      0.64188158	     -0.31965471	    -10.88032673	      0.00000000	    -11.33729785	     -9.27755942	    -13.13111585	     86.33168243	      1.50677211	    -13.13992972	    -17.16011481	      0.00000000
